<svg width="45" height="46" viewBox="0 0 45 46" fill="none" xmlns="http://www.w3.org/2000/svg">
<g id="045-ticket">
<rect x="0.5" y="0.519531" width="44" height="44" stroke="#83CD20"/>
<g id="Group">
<path id="Vector" d="M44.3848 9.77344H11.7348C11.644 9.77338 11.5543 9.79344 11.4722 9.83216C11.3901 9.87088 11.3176 9.9273 11.2598 9.99738L9.88875 11.6624L8.51766 9.99738C8.45993 9.9273 8.3874 9.87088 8.30528 9.83216C8.22316 9.79344 8.13349 9.77338 8.0427 9.77344H0.615234C0.534411 9.77344 0.45438 9.78936 0.379713 9.8203C0.305047 9.85124 0.237208 9.89659 0.180074 9.95376C0.122939 10.0109 0.0776288 10.0788 0.0467311 10.1535C0.0158333 10.2282 -4.60843e-05 10.3082 1.00456e-07 10.389V34.6468C1.00456e-07 34.81 0.0648192 34.9665 0.180198 35.0819C0.295577 35.1973 0.452064 35.2621 0.615234 35.2621H8.04059C8.13138 35.2621 8.22105 35.2421 8.30317 35.2033C8.3853 35.1646 8.45782 35.1082 8.51555 35.0381L9.88664 33.3731L11.2577 35.0381C11.3155 35.1082 11.388 35.1646 11.4701 35.2033C11.5522 35.2421 11.6419 35.2621 11.7327 35.2621H44.3848C44.4656 35.2621 44.5456 35.2462 44.6203 35.2153C44.6949 35.1844 44.7628 35.1391 44.8199 35.082C44.877 35.0248 44.9224 34.957 44.9533 34.8823C44.9842 34.8077 45 34.7276 45 34.6468V10.389C45.0001 10.3082 44.9842 10.2281 44.9534 10.1534C44.9225 10.0787 44.8772 10.0108 44.82 9.95366C44.7629 9.89648 44.695 9.85113 44.6203 9.82021C44.5457 9.78928 44.4656 9.77339 44.3848 9.77344ZM1.23047 11.0039H7.7502L9.41273 13.0212C9.47242 13.088 9.54556 13.1415 9.62735 13.1781C9.70913 13.2147 9.79773 13.2336 9.88734 13.2336C9.97695 13.2336 10.0656 13.2147 10.1473 13.1781C10.2291 13.1415 10.3023 13.088 10.362 13.0212L12.0245 11.0039H43.7706V29.7714H1.23047V11.0039ZM43.7695 34.0312H12.0252L10.3627 32.014C10.303 31.9471 10.2298 31.8937 10.148 31.8571C10.0663 31.8204 9.97766 31.8015 9.88805 31.8015C9.79844 31.8015 9.70984 31.8204 9.62805 31.8571C9.54626 31.8937 9.47313 31.9471 9.41344 32.014L7.7509 34.0312H1.23047V31.0018H43.7695V34.0312Z" fill="white"/>
<path id="Vector_2" d="M20.4609 12.5863H13.0612C12.9705 12.5862 12.8809 12.6063 12.7988 12.645C12.7167 12.6837 12.6443 12.7401 12.5866 12.8102L9.8877 16.0847L7.18875 12.8099C7.13111 12.7398 7.05865 12.6834 6.97658 12.6446C6.89452 12.6059 6.80488 12.5859 6.71414 12.5859H3.42773C3.34688 12.5859 3.26682 12.6019 3.19213 12.6328C3.11744 12.6638 3.04959 12.7092 2.99245 12.7664C2.93531 12.8236 2.89001 12.8915 2.85913 12.9662C2.82825 13.0409 2.81241 13.121 2.8125 13.2019V27.5745C2.8125 27.7376 2.87732 27.8941 2.9927 28.0095C3.10808 28.1249 3.26456 28.1897 3.42773 28.1897H20.4609C20.6241 28.1897 20.7806 28.1249 20.896 28.0095C21.0114 27.8941 21.0762 27.7376 21.0762 27.5745V13.2019C21.0762 13.1211 21.0603 13.041 21.0294 12.9663C20.9985 12.8916 20.9532 12.8238 20.8961 12.7666C20.839 12.7094 20.7711 12.6641 20.6965 12.6332C20.6218 12.6022 20.5418 12.5863 20.4609 12.5863ZM19.8457 26.9592H4.04297V13.8168H6.42375L9.41203 17.4438C9.47172 17.5107 9.54485 17.5641 9.62664 17.6008C9.70843 17.6374 9.79703 17.6563 9.88664 17.6563C9.97625 17.6563 10.0648 17.6374 10.1466 17.6008C10.2284 17.5641 10.3016 17.5107 10.3613 17.4438L13.3495 13.8168H19.8464L19.8457 26.9592Z" fill="white"/>
<path id="Vector_3" d="M40.8446 13.5192C40.3332 13.0091 39.6403 12.7227 38.918 12.7227C38.1957 12.7227 37.5029 13.0091 36.9915 13.5192L34.4349 16.0758L30.1131 15.0752C29.6046 14.9558 29.0739 14.9687 28.5717 15.1126C28.0695 15.2565 27.6126 15.5266 27.2444 15.8972L26.2832 16.8583C26.2123 16.9291 26.1598 17.0162 26.1302 17.1119C26.1006 17.2077 26.0949 17.3092 26.1135 17.4077C26.1321 17.5061 26.1745 17.5985 26.237 17.6769C26.2995 17.7552 26.3802 17.8171 26.472 17.8571L30.7741 19.7383L28.8514 21.6607L25.0897 22.0091C24.9469 22.0217 24.8131 22.0839 24.7114 22.1849L22.8481 24.0481C22.7723 24.1239 22.7176 24.2183 22.6894 24.3217C22.6613 24.4252 22.6607 24.5342 22.6876 24.638C22.7146 24.7417 22.7682 24.8367 22.8432 24.9133C22.9181 24.99 23.0118 25.0458 23.1149 25.0751L27.6779 26.3727C28.506 26.608 29.3819 26.618 30.2152 26.4017C31.0484 26.1854 31.8089 25.7506 32.418 25.1422L42.0072 15.553C42.0644 15.4959 42.1097 15.4281 42.1407 15.3535C42.1716 15.2789 42.1875 15.1989 42.1875 15.1181C42.1875 15.0373 42.1716 14.9573 42.1407 14.8827C42.1097 14.8081 42.0644 14.7403 42.0072 14.6832L40.8446 13.5192ZM31.5479 24.2714C31.094 24.7251 30.5271 25.0495 29.9059 25.2108C29.2847 25.3722 28.6317 25.3648 28.0143 25.1893L24.4586 24.1786L25.4254 23.2118L29.1871 22.8634C29.3301 22.8503 29.464 22.7875 29.5654 22.6858L32.2826 19.9686C32.3535 19.8978 32.4061 19.8107 32.4357 19.715C32.4652 19.6193 32.471 19.5178 32.4524 19.4193C32.4338 19.3208 32.3914 19.2284 32.3289 19.1501C32.2664 19.0717 32.1857 19.0099 32.0939 18.9698L27.7911 17.0904L28.1145 16.7669C28.3356 16.5444 28.61 16.3823 28.9116 16.2961C29.2132 16.21 29.5319 16.2026 29.8372 16.2747L34.4883 17.3512C34.5901 17.3745 34.696 17.3717 34.7963 17.343C34.8967 17.3143 34.9881 17.2606 35.0621 17.187L37.8598 14.3893C38.1404 14.1096 38.5203 13.9526 38.9164 13.9526C39.3126 13.9526 39.6925 14.1096 39.9731 14.3893L40.7008 15.1174L31.5479 24.2714Z" fill="white"/>
<path id="Vector_4" d="M17.6484 24.1484H6.24023C6.07706 24.1484 5.92058 24.2133 5.8052 24.3286C5.68982 24.444 5.625 24.6005 5.625 24.7637C5.625 24.9268 5.68982 25.0833 5.8052 25.1987C5.92058 25.3141 6.07706 25.3789 6.24023 25.3789H17.6484C17.8116 25.3789 17.9681 25.3141 18.0835 25.1987C18.1988 25.0833 18.2637 24.9268 18.2637 24.7637C18.2637 24.6005 18.1988 24.444 18.0835 24.3286C17.9681 24.2133 17.8116 24.1484 17.6484 24.1484Z" fill="white"/>
<path id="Vector_5" d="M17.6484 21.8945H6.24023C6.07706 21.8945 5.92058 21.9593 5.8052 22.0747C5.68982 22.1901 5.625 22.3466 5.625 22.5098C5.625 22.6729 5.68982 22.8294 5.8052 22.9448C5.92058 23.0602 6.07706 23.125 6.24023 23.125H17.6484C17.8116 23.125 17.9681 23.0602 18.0835 22.9448C18.1988 22.8294 18.2637 22.6729 18.2637 22.5098C18.2637 22.3466 18.1988 22.1901 18.0835 22.0747C17.9681 21.9593 17.8116 21.8945 17.6484 21.8945Z" fill="white"/>
<path id="Vector_6" d="M17.6484 19.6406H6.24023C6.07706 19.6406 5.92058 19.7054 5.8052 19.8208C5.68982 19.9362 5.625 20.0927 5.625 20.2559C5.625 20.419 5.68982 20.5755 5.8052 20.6909C5.92058 20.8063 6.07706 20.8711 6.24023 20.8711H17.6484C17.8116 20.8711 17.9681 20.8063 18.0835 20.6909C18.1988 20.5755 18.2637 20.419 18.2637 20.2559C18.2637 20.0927 18.1988 19.9362 18.0835 19.8208C17.9681 19.7054 17.8116 19.6406 17.6484 19.6406Z" fill="white"/>
<path id="Vector_7" d="M12.7333 18.0059C12.7332 18.0867 12.7491 18.1667 12.78 18.2414C12.8109 18.316 12.8562 18.3839 12.9134 18.441C12.9705 18.4981 13.0384 18.5435 13.113 18.5744C13.1877 18.6053 13.2677 18.6211 13.3485 18.6211H17.6485C17.8116 18.6211 17.9681 18.5563 18.0835 18.4409C18.1989 18.3255 18.2637 18.169 18.2637 18.0059C18.2637 17.8427 18.1989 17.6862 18.0835 17.5708C17.9681 17.4554 17.8116 17.3906 17.6485 17.3906H13.3485C13.2677 17.3906 13.1877 17.4065 13.113 17.4374C13.0384 17.4683 12.9705 17.5136 12.9134 17.5707C12.8562 17.6279 12.8109 17.6957 12.78 17.7704C12.7491 17.845 12.7332 17.9251 12.7333 18.0059Z" fill="white"/>
</g>
</g>
</svg>
