<svg width="45" height="46" viewBox="0 0 45 46" fill="none" xmlns="http://www.w3.org/2000/svg">
<g id="049-visa" clip-path="url(#clip0_1_99)">
<g id="Group">
<path id="Vector" d="M6.67975 20.0586C6.67975 24.3125 10.1251 27.8281 14.4493 27.8281C18.7383 27.8281 22.2188 24.3477 22.2188 20.0586C22.2188 15.8398 18.8087 12.2891 14.4493 12.2891C10.1954 12.2891 6.67975 15.7695 6.67975 20.0586ZM20.3555 22.8359H18.3868C18.5274 22.1328 18.6329 21.3945 18.6329 20.6562H20.9532C20.918 21.4297 20.7071 22.168 20.3555 22.8359ZM7.94537 20.6562H10.2657C10.3008 21.3945 10.3712 22.0977 10.5118 22.8359H8.54303C8.19147 22.168 8.01569 21.4297 7.94537 20.6562ZM11.4962 20.6562H13.8516V22.8359H11.7774C11.6016 22.1328 11.4962 21.3945 11.4962 20.6562ZM13.8516 24.0664V26.4219C13.2188 26.1055 12.586 25.2617 12.129 24.0664H13.8516ZM15.0821 26.457V24.1016H16.8047C16.3126 25.2617 15.7149 26.1055 15.0821 26.457ZM15.0821 22.8359V20.6562H17.4376C17.4024 21.3945 17.2969 22.1328 17.1563 22.8359H15.0821ZM20.9883 19.4609H18.668C18.6329 18.7227 18.5626 18.0195 18.4219 17.2812H20.3907C20.7071 17.9492 20.918 18.6875 20.9883 19.4609ZM17.4376 19.4609H15.0821V17.2812H17.1563C17.2969 17.9844 17.4024 18.7227 17.4376 19.4609ZM15.0821 16.0508V13.6953C15.7149 14.0117 16.3477 14.8555 16.8047 16.0508H15.0821ZM13.8516 13.6602V16.0156H12.129C12.586 14.8555 13.1837 14.0117 13.8516 13.6602ZM13.8516 17.2812V19.4609H11.4962C11.5313 18.7227 11.6368 17.9844 11.7774 17.2812H13.8516ZM10.2657 19.4609H7.94537C8.01569 18.7227 8.22662 17.9844 8.54303 17.2812H10.5118C10.3712 17.9844 10.2657 18.7227 10.2657 19.4609ZM9.28131 24.0664H10.8282C11.0391 24.7344 11.3204 25.4023 11.7071 26C10.7579 25.543 9.94928 24.9102 9.28131 24.0664ZM17.1915 26C17.5782 25.4023 17.8594 24.7695 18.0704 24.0664H19.6172C18.9844 24.9102 18.1407 25.543 17.1915 26ZM19.6172 16.0508H18.0704C17.8594 15.3828 17.5782 14.75 17.1915 14.1172C18.1407 14.5742 18.9844 15.207 19.6172 16.0508ZM11.7071 14.1172C11.3204 14.7148 11.0391 15.3477 10.8282 16.0508H9.28131C9.94928 15.207 10.7579 14.5742 11.7071 14.1172Z" fill="white"/>
<path id="Vector_2" d="M25.8751 29.6211H3.05865C2.70709 29.6211 2.461 29.9023 2.461 30.2188V32.6094C2.461 32.9609 2.74225 33.207 3.05865 33.207H25.8751C26.2266 33.207 26.4727 32.9258 26.4727 32.6094V30.2188C26.4727 29.9023 26.1915 29.6211 25.8751 29.6211ZM25.2422 32.0117H3.65631V30.8516H25.2422V32.0117Z" fill="white"/>
<path id="Vector_3" d="M21.0587 34.4023H7.87506C7.5235 34.4023 7.2774 34.6836 7.2774 35V37.3906C7.2774 37.7422 7.55865 37.9883 7.87506 37.9883H21.0587C21.4102 37.9883 21.6563 37.707 21.6563 37.3906V35C21.6563 34.6836 21.3751 34.4023 21.0587 34.4023ZM20.4258 36.8281H8.47272V35.668H20.4258V36.8281Z" fill="white"/>
<path id="Vector_4" d="M30.4805 14.293L32.6251 13.4492V14.5039L31.2891 16.1211C31.1837 16.2266 31.1485 16.3672 31.1485 16.5078V18.0195C31.1485 18.4766 31.6407 18.793 32.0626 18.5469L34.418 17.2461C35.3672 16.7187 35.9649 15.6992 35.9649 14.6094V6.875C35.9649 6.52344 35.6837 6.27734 35.3672 6.27734H34.418C33.4337 6.27734 32.5899 7.08594 32.5899 8.10547V10.0039L30.586 11.2344C29.9883 11.5859 29.6368 12.2539 29.6368 12.957V13.7305C29.6368 14.1523 30.0938 14.4687 30.4805 14.293ZM31.254 12.2891L33.5743 10.8477C33.7501 10.7422 33.8555 10.5312 33.8555 10.3203V8.07031C33.8555 7.75391 34.1016 7.47266 34.4532 7.47266H34.7696V14.5742C34.7696 15.207 34.418 15.8047 33.8555 16.1211L32.4141 16.9297V16.6836L33.7149 15.1016C33.8204 14.9961 33.8555 14.8555 33.8555 14.7148V12.5352C33.8555 12.1133 33.4337 11.7969 33.0118 11.9727L30.9024 12.8164C30.9024 12.6055 31.043 12.3945 31.254 12.2891Z" fill="white"/>
<path id="Vector_5" d="M44.7891 13.1689C31.3946 -0.225586 36.0352 4.41504 35.0157 3.39551C34.7696 3.14941 34.3829 3.14941 34.1368 3.39551L28.1602 9.40723C27.4219 8.35254 26.2266 7.75488 24.961 7.75488H24.3985V3.85254C24.3985 3.46582 24.0469 3.18457 23.6602 3.25488L0.527405 7.75488C0.246155 7.8252 0.0352173 8.07129 0.0352173 8.35254V41.2236C0.0352173 41.5752 0.316467 41.8213 0.632873 41.8213H28.2305C28.5821 41.8213 28.8282 41.54 28.8282 41.2236V29.9736L44.754 14.0479C45.0352 13.8018 45.0352 13.415 44.7891 13.1689ZM28.7227 10.5674L34.5938 4.69629L41.7657 11.8682C41.0977 12.5361 30.3047 23.3291 28.8633 24.7705V11.6572C28.8633 11.2705 28.8282 10.9189 28.7227 10.5674ZM23.168 4.59082V7.71973H7.03131L23.168 4.59082ZM1.26569 40.5908V8.9502H24.961C26.4376 8.9502 27.6329 10.1455 27.6329 11.6221V40.5557H1.26569V40.5908ZM28.8633 28.2158V26.5283L42.6446 12.7471L43.4883 13.5908L28.8633 28.2158Z" fill="white"/>
</g>
</g>
<defs>
<clipPath id="clip0_1_99">
<rect width="45" height="45" fill="white" transform="translate(6.10352e-05 0.0195312)"/>
</clipPath>
</defs>
</svg>
