<svg width="45" height="45" viewBox="0 0 45 45" fill="none" xmlns="http://www.w3.org/2000/svg">
<g id="Frame">
<path id="Vector" d="M22.5 39.375C25.8376 39.375 29.1002 38.3853 31.8753 36.531C34.6503 34.6768 36.8132 32.0413 38.0905 28.9578C39.3677 25.8743 39.7019 22.4813 39.0508 19.2079C38.3996 15.9344 36.7924 12.9276 34.4324 10.5676C32.0724 8.20756 29.0656 6.60037 25.7922 5.94925C22.5187 5.29812 19.1257 5.6323 16.0422 6.90953C12.9587 8.18676 10.3232 10.3497 8.46895 13.1248C6.6147 15.8998 5.625 19.1624 5.625 22.5C5.625 25.29 6.3 27.9206 7.5 30.2381L5.625 39.375L14.7619 37.5C17.0794 38.7 19.7119 39.375 22.5 39.375Z" stroke="#3E3F3C" stroke-width="1.25" stroke-linecap="round" stroke-linejoin="round"/>
</g>
</svg>
