<svg width="50" height="50" viewBox="0 0 50 50" fill="none" xmlns="http://www.w3.org/2000/svg">
<g id="Frame">
<path id="Vector" d="M25.0021 4.16669C36.5083 4.16669 45.8354 13.4938 45.8354 25C45.8354 36.5063 36.5083 45.8334 25.0021 45.8334C21.3204 45.8393 17.7034 44.865 14.5229 43.0104L4.17706 45.8334L6.99373 35.4834C5.13767 32.3018 4.16258 28.6833 4.16873 25C4.16873 13.4938 13.4958 4.16669 25.0021 4.16669ZM17.9021 15.2084L17.4854 15.225C17.2156 15.2414 16.952 15.3123 16.7104 15.4334C16.4844 15.5613 16.2781 15.7213 16.0979 15.9084C15.8479 16.1438 15.7062 16.3479 15.5541 16.5459C14.7836 17.5477 14.3687 18.7778 14.375 20.0417C14.3791 21.0625 14.6458 22.0563 15.0625 22.9854C15.9146 24.8646 17.3166 26.8542 19.1666 28.6979C19.6125 29.1417 20.05 29.5875 20.5208 30.0021C22.8195 32.026 25.5588 33.4855 28.5208 34.2646L29.7041 34.4459C30.0896 34.4667 30.475 34.4375 30.8625 34.4188C31.4692 34.3874 32.0617 34.2232 32.5979 33.9375C32.8707 33.797 33.137 33.6441 33.3958 33.4792C33.3958 33.4792 33.4854 33.4209 33.6562 33.2917C33.9375 33.0834 34.1104 32.9354 34.3437 32.6917C34.5166 32.5125 34.6666 32.3021 34.7812 32.0625C34.9437 31.7229 35.1062 31.075 35.1729 30.5354C35.2229 30.1229 35.2083 29.8979 35.2021 29.7584C35.1937 29.5354 35.0083 29.3042 34.8062 29.2063L33.5937 28.6625C33.5937 28.6625 31.7812 27.8729 30.6729 27.3688C30.5569 27.3181 30.4326 27.2892 30.3062 27.2834C30.1637 27.2687 30.0197 27.2848 29.8838 27.3304C29.748 27.376 29.6235 27.4502 29.5187 27.5479C29.5083 27.5438 29.3687 27.6625 27.8625 29.4875C27.776 29.6037 27.6569 29.6915 27.5204 29.7397C27.3839 29.788 27.2361 29.7944 27.0958 29.7584C26.9601 29.722 26.8271 29.676 26.6979 29.6209C26.4396 29.5125 26.35 29.4709 26.1729 29.3959C24.9772 28.8741 23.8702 28.1691 22.8916 27.3063C22.6291 27.0771 22.3854 26.8271 22.1354 26.5854C21.3158 25.8005 20.6015 24.9125 20.0104 23.9438L19.8875 23.7459C19.7992 23.6129 19.7278 23.4694 19.675 23.3188C19.5958 23.0125 19.8021 22.7667 19.8021 22.7667C19.8021 22.7667 20.3083 22.2125 20.5437 21.9125C20.7729 21.6209 20.9666 21.3375 21.0916 21.1354C21.3375 20.7396 21.4146 20.3334 21.2854 20.0188C20.7021 18.5938 20.0979 17.175 19.4771 15.7667C19.3541 15.4875 18.9896 15.2875 18.6583 15.2479C18.5458 15.2354 18.4333 15.2229 18.3208 15.2146C18.041 15.2007 17.7607 15.2035 17.4812 15.2229L17.9021 15.2084Z" fill="black"/>
</g>
</svg>
