<svg width="53" height="10" viewBox="0 0 53 10" fill="none" xmlns="http://www.w3.org/2000/svg">
<g id="OBJECTS" clip-path="url(#clip0_1_49)">
<path id="Vector" d="M47.7105 2.14504C46.9106 2.36833 46.0884 2.50202 45.259 2.54366L38.5755 3.26782C37.0634 3.44053 35.5723 3.76324 34.1242 4.23116C33.335 4.49681 32.5757 4.84416 31.8587 5.26757C31.0825 5.79061 30.2749 6.26542 29.4404 6.68931C28.9375 6.92469 28.3878 7.04282 27.8326 7.03479C27.2214 6.99923 26.6435 6.74448 26.2049 6.31727C25.3612 5.44695 25.1287 4.3906 24.5772 3.71295C24.3491 3.38019 24.006 3.14355 23.6139 3.04858C23.1936 2.95541 22.7553 2.98539 22.3516 3.13494C21.4452 3.46465 20.6849 4.1049 20.2057 4.94202C19.6277 5.79906 19.1759 6.77568 18.5182 7.6925C17.8781 8.67765 16.9295 9.42293 15.8209 9.81183C15.239 9.978 14.6223 9.978 14.0404 9.81183C13.4891 9.64832 12.9808 9.3647 12.5522 8.98138C11.7858 8.27802 11.1885 7.4104 10.8049 6.44349C10.4196 5.55324 10.1405 4.68956 9.75521 3.93218C9.31334 2.8969 8.51098 2.05701 7.49695 1.56833C6.48293 1.07964 5.32607 0.975313 4.24097 1.27471C3.66462 1.42 3.12589 1.68657 2.66075 2.05662C2.19561 2.42666 1.81477 2.89169 1.54364 3.42063C1.11 4.23694 0.903487 5.15472 0.945698 6.0781C0.962342 6.66972 1.08851 7.25314 1.31776 7.7988C1.47057 8.18414 1.57686 8.3768 1.54364 8.40338C1.51043 8.42995 1.35097 8.26386 1.12509 7.89845C0.798973 7.35347 0.597072 6.74325 0.533793 6.11131C0.406555 5.10035 0.572596 4.07413 1.01214 3.15487C1.29995 2.52951 1.71882 1.97333 2.24037 1.52399C2.76192 1.07466 3.37396 0.742685 4.03502 0.550557C4.84237 0.314906 5.69223 0.263002 6.52226 0.398658C7.35229 0.534314 8.14143 0.854092 8.83175 1.33452C9.58289 1.89582 10.1851 2.63259 10.5857 3.48042C11.0175 4.31088 11.3231 5.18784 11.7018 6.01829C12.036 6.84573 12.554 7.58635 13.2166 8.18414C13.5189 8.47476 13.8917 8.68153 14.2983 8.78406C14.7049 8.88659 15.1313 8.88132 15.5352 8.76877C16.4067 8.4421 17.1499 7.84341 17.6545 7.06136C18.2325 6.25747 18.6843 5.28085 19.3155 4.33745C19.6365 3.84831 20.0182 3.40184 20.4515 3.00871C20.9081 2.61185 21.4387 2.30929 22.0128 2.11846C22.6052 1.91585 23.2422 1.88136 23.8531 2.01881C24.4729 2.17198 25.0187 2.53901 25.3944 3.05522C26.0986 3.99862 26.3378 5.04832 26.9092 5.57317C27.1685 5.8333 27.5128 5.99132 27.8791 6.01829C28.2827 6.02138 28.6821 5.93518 29.0484 5.76584C29.8507 5.36829 30.6293 4.92464 31.3804 4.43711C32.158 3.99138 32.9823 3.63267 33.8385 3.36748C35.3537 2.91432 36.9126 2.62259 38.4891 2.49716C41.3459 2.25799 43.6379 2.1849 45.2324 2.10517C46.0574 2.02681 46.8885 2.04019 47.7105 2.14504Z" fill="#034833"/>
<path id="Vector_2" d="M45.9762 6.27037C45.9231 6.13085 46.6406 5.73888 47.7235 5.0878C48.2683 4.76226 48.9127 4.36363 49.6036 3.89193C49.9491 3.6594 50.268 3.4003 50.6666 3.13456C50.8373 3.01847 50.9954 2.88488 51.1383 2.73594C51.2579 2.61862 51.3527 2.47857 51.4173 2.32403C51.4506 2.1978 51.4173 2.20444 51.4173 2.15793C51.321 2.06983 51.2009 2.01206 51.0719 1.99184L49.783 1.64638C48.9592 1.42049 48.2218 1.20125 47.6039 0.982013C46.3682 0.583392 45.6108 0.264491 45.6573 0.124974C45.7038 -0.0145435 46.501 0.0386075 47.7833 0.251205C48.4476 0.357504 49.1784 0.503664 50.0155 0.676399L51.3443 0.968722C51.684 1.03055 51.9955 1.19794 52.2345 1.44707C52.3826 1.61498 52.4774 1.82309 52.5069 2.04499C52.5341 2.24892 52.5113 2.45641 52.4405 2.64957C52.3291 2.95052 52.1521 3.22287 51.9223 3.44681C51.735 3.63946 51.5254 3.80898 51.2978 3.95172C50.9124 4.23076 50.5205 4.47658 50.1484 4.70246C49.4845 5.0995 48.7916 5.44595 48.0756 5.73887C46.8399 6.25708 46.0294 6.40324 45.9762 6.27037Z" fill="#034833"/>
</g>
<defs>
<clipPath id="clip0_1_49">
<rect width="52" height="9.86585" fill="white" transform="translate(0.5 0.0670776)"/>
</clipPath>
</defs>
</svg>
